<svg width="327" height="327" viewBox="0 0 327 327" fill="none" xmlns="http://www.w3.org/2000/svg">
<g clip-path="url(#clip0_135_1191)">
<rect width="327" height="327" rx="16" fill="#F2F2F7"/>
<rect x="197" y="-68" width="193" height="190" rx="95" fill="#E5E5EA"/>
<rect x="-80.0969" y="136" width="279.806" height="279.806" rx="32" transform="rotate(30 -80.0969 136)" fill="#E5E5EA"/>
<path d="M131.868 233.324L190.106 217.72C214.656 211.141 226.991 193.615 221.626 173.594L221.583 173.435C217.751 159.134 202.381 150.394 187.497 153.956L187.071 152.367C199.119 147.436 205.647 134.617 202.347 122.302L202.305 122.143C197.536 104.346 180.997 97.282 157.559 103.562L101.149 118.677L131.868 233.324ZM154.516 129.072C163.097 126.773 169.273 129.802 171.146 136.793L171.189 136.952C173.02 143.785 168.831 149.761 160.25 152.06L147.141 155.573L141.01 132.691L154.516 129.072ZM166.933 170.962C177.023 168.259 184.238 171.35 186.431 179.533L186.473 179.692C188.772 188.273 184.25 194.594 173.762 197.404L159.382 201.257L152.314 174.88L166.933 170.962Z" fill="black" fill-opacity="0.5"/>
</g>
<defs>
<clipPath id="clip0_135_1191">
<rect width="327" height="327" rx="16" fill="white"/>
</clipPath>
</defs>
</svg>
